<?xml version="1.0" encoding="UTF-8"?>
<svg width="1200pt" height="1200pt" version="1.1" viewBox="0 0 1200 1200" xmlns="http://www.w3.org/2000/svg">
 <g>
  <path d="m458.33 149.99h16.668v0.011719c0 55.223 44.773 99.996 100.01 99.996 55.223 0 99.996-44.773 99.996-99.996v-0.011719h16.668c9.2148 0 16.668-7.4531 16.668-16.668 0-9.2148-7.4531-16.668-16.668-16.668h-0.035157c-16.598-0.17969-0.0625-116.65-116.63-116.65-116.58 0-100.03 116.47-116.64 116.65h-0.035156c-9.2148 0-16.668 7.4648-16.668 16.668 0 9.2031 7.4648 16.668 16.668 16.668zm66.672-83.316h33.324v-33.336h33.336v33.336h33.336v33.336h-33.324v33.336h-33.336v-33.348h-33.324v-33.324z"/>
  <path d="m1025 333.34c0 46.02-37.309 83.328-83.328 83.328s-83.328-37.309-83.328-83.328c0-46.02 37.309-83.328 83.328-83.328s83.328 37.309 83.328 83.328"/>
  <path d="m392.06 574.8-12.574-12.562c-7.5352-7.5469-17.965-12.238-29.484-12.238-23.016 0-41.676 18.648-41.676 41.664 0 11.52 4.6914 21.961 12.254 29.496l15.949 15.949 17.305 17.316c0.48047 0.49219 1.043 0.83984 1.5703 1.2852 0.625 0.58984 1.2969 1.0938 1.9805 1.6445 1.2227 0.98438 2.4492 1.957 3.7695 2.7969 1.0195 0.64844 2.125 1.1758 3.2031 1.7266 1.1406 0.60156 2.2695 1.2344 3.4805 1.7266 1.4648 0.60156 3.0234 1.0078 4.5977 1.4297 0.94922 0.25391 1.8594 0.625 2.8555 0.81641 2.6055 0.51563 5.2695 0.81641 8.0391 0.81641 23.016 0 41.676-18.66 41.676-41.664v-56.629l-19.754-8.3867z"/>
  <path d="m591.67 633.34c-8.9883 0-25.32-5.0156-25.32-5.0156l-124.68-52.883v566.23c0 32.219 26.113 58.332 58.332 58.332s58.32-26.125 58.32-58.332v-391.67h33.348v391.67c0 32.219 26.113 58.332 58.332 58.332s58.32-26.125 58.32-58.332v-563.68c-33.168 21.254-68.125 41.281-96.684 51.961-6.2305 2.3398-12.949 3.3828-19.969 3.3828z"/>
  <path d="m766.67 450c-23.016 0-41.664 18.648-41.664 41.664v66.672c0 2.832 0.28906 5.5664 0.82812 8.2305 0.011719 0.035156 0 0.070313 0.011719 0.097656 0.57422 2.8438 1.4648 5.5664 2.5938 8.1719 0.10938 0.28906 0.30078 0.55078 0.45703 0.83984 1.0547 2.3047 2.2812 4.5234 3.7422 6.5898 0.070312 0.085937 0.15625 0.16797 0.20312 0.25391 3.2656 4.5469 7.4141 8.3633 12.215 11.281l0.011718 0.011719c2.8672 1.7539 5.9648 3.0977 9.2383 4.1055 0.58984 0.20312 1.1406 0.39453 1.7266 0.55078 3.4141 0.89453 6.9297 1.5312 10.637 1.5312 23.016 0 41.676-18.648 41.676-41.664v-66.66c-0.011719-23.027-18.66-41.676-41.676-41.676z"/>
  <path d="m798.91 353c-15.012-36.852-48.781-69.672-107.26-69.672h-233.34c-83.328 0-116.66 66.66-116.66 116.66v33.625c-4.3672 3.2891-8.4375 6.9844-12.156 11.137l-133.32 150c-13.652 15.395-21.176 34.988-21.176 55.246 0 45.949 37.391 83.34 83.328 83.34 23.605 0 46.262-10.246 62.148-28.094l18.133-20.375c-2.8555-2.1484-5.7461-4.2734-8.3398-6.8633l-15.949-15.973-18.758 21.047c-9.168 10.297-22.367 16.906-37.234 16.906-27.602 0-49.992-22.402-49.992-50.004 0-12.742 4.9062-24.254 12.77-33.086l120.57-135.62 12.77-14.375c9.168-10.297 22.355-16.906 37.223-16.906 6.0117 0 11.688 1.2344 17.027 3.1797 0 0 116.7 45.277 157.66 51.863 12.336 1.9922 92.711-33.359 161.52-102.17 12.059-12.07 28.727-19.547 47.137-19.547 12.086 0 23.258 3.4688 33.023 9.0859 0.023438 0.011719 0.058594 0.035156 0.070312 0.035156 6.875 3.9727 12.898 9.0977 17.965 15.168 0.67188 0.81641 1.3555 1.5977 2.0039 2.4258 1.2461 1.6797 2.4375 3.3711 3.5508 5.1602 1.2617 2.0273 2.3867 4.1523 3.4336 6.3125 0.73047 1.5234 1.4141 3.0234 2.0391 4.6211 1.0938 2.7969 1.9805 5.7344 2.6992 8.7227 0.25391 1.1055 0.49219 2.207 0.70703 3.3125 0.70703 3.8398 1.1875 7.7656 1.1875 11.82v74.16c0.52734-0.40625 0.89844-0.69531 1.1172-0.86328l1.5234-1.1992 1.3789-1.4023c18.898-18.887 29.316-44.004 29.316-70.703-0.019532-46.883-32.516-86.219-76.113-96.984z"/>
 </g>
</svg>
