<!DOCTYPE svg PUBLIC "-//W3C//DTD SVG 20010904//EN" "http://www.w3.org/TR/2001/REC-SVG-20010904/DTD/svg10.dtd">
<svg version="1.0" xmlns="http://www.w3.org/2000/svg" width="990px" height="280px" viewBox="0 0 9900 2800" preserveAspectRatio="xMidYMid meet">
<g id="layer1" fill="#000000" stroke="none">
 <path d="M3301 2674 c-134 -13 -249 -28 -254 -33 -7 -7 74 -97 246 -273 l255 -263 -61 -6 c-34 -4 -118 -8 -187 -9 -206 -3 -295 -13 -294 -30 1 -8 74 -115 162 -238 l161 -222 -112 -83 c-62 -45 -167 -123 -235 -172 -67 -49 -121 -95 -120 -102 2 -8 81 -55 176 -107 96 -51 175 -97 175 -101 1 -5 -122 -84 -273 -176 -151 -92 -281 -173 -288 -179 -12 -10 -12 -15 0 -25 7 -7 164 -65 348 -129 l335 -116 326 -20 326 -21 314 21 314 20 120 69 120 69 860 -103 860 -104 617 -31 617 -31 368 31 c433 36 1163 138 1430 199 165 38 188 47 175 67 -15 23 -277 161 -757 401 -477 238 -521 258 -951 427 l-450 176 -370 85 c-203 47 -585 128 -849 180 l-480 95 -373 29 c-207 17 -379 35 -386 41 -8 5 -16 26 -19 46 -4 22 -31 69 -72 124 -65 87 -68 89 -208 169 -114 64 -187 96 -367 161 l-225 81 -327 54 c-180 30 -344 54 -365 54 -21 -1 -148 -12 -282 -25z"/>
 <path d="M704 2435 c-9 -21 54 -115 141 -212 42 -47 74 -87 72 -90 -3 -2 -76 5 -163 17 -167 21 -537 29 -548 11 -10 -16 19 -28 139 -57 97 -24 135 -38 200 -78 44 -27 123 -69 174 -94 66 -30 90 -46 80 -52 -7 -4 -54 -15 -103 -24 -107 -19 -191 -65 -167 -89 11 -11 370 -61 586 -82 161 -15 183 -19 416 -90 229 -70 263 -78 495 -110 195 -27 282 -35 400 -35 l151 0 53 80 52 80 -11 77 c-10 66 -19 89 -66 164 l-56 87 -152 56 c-214 79 -468 134 -902 196 l-360 51 -204 105 c-112 57 -208 104 -213 104 -5 0 -11 -7 -14 -15z"/>
 </g>

</svg>