<?xml version="1.0" encoding="utf-8"?>
<!-- Svg Vector Icons : http://www.onlinewebfonts.com/icon -->
<!DOCTYPE svg PUBLIC "-//W3C//DTD SVG 1.1//EN" "http://www.w3.org/Graphics/SVG/1.1/DTD/svg11.dtd">
<svg version="1.1" xmlns="http://www.w3.org/2000/svg" xmlns:xlink="http://www.w3.org/1999/xlink" x="0px" y="0px" viewBox="0 0 1000 1000" enable-background="new 0 0 1000 1000" xml:space="preserve">
<metadata> Svg Vector Icons : http://www.onlinewebfonts.com/icon </metadata>
<g><g transform="translate(0.000000,511.000000) scale(0.100000,-0.100000)"><path d="M4848.9,4990c-174.1-54.4-324.2-200.2-369.9-361.2c-43.5-156.7-19.6-337.3,60.9-467.8l69.6-113.2l-95.7-178.4c-54.4-95.7-258.9-454.8-452.6-796.4l-356.9-620.1l-950.9-6.5l-953.1-4.4l-32.6,76.2c-45.7,108.8-178.4,250.2-280.7,295.9c-115.3,54.4-341.6,54.4-456.9,0c-200.2-89.2-315.5-274.2-315.5-502.6c0-180.6,50-289.4,185-409.1c119.7-104.5,226.3-139.3,396-132.7l117.5,6.5l476.5-835.6l476.5-833.4L2313.9,18c-28.3-50-241.5-422.1-474.4-829l-424.3-739.8l-100.1,6.5c-235,17.4-467.8-117.5-554.9-324.2c-58.8-132.7-63.1-317.7-15.2-437.4c180.6-430.8,789.9-457,992.2-45.7l54.4,113.1h957.4l957.4,2.2l452.6-792c248.1-435.2,450.4-796.4,450.4-802.9c0-8.7-32.6-58.8-69.6-113.1c-60.9-87-71.8-121.8-78.3-258.9c-6.5-106.6,2.2-180.6,23.9-237.2c128.4-306.8,465.7-435.2,761.6-289.4c208.9,102.3,306.8,276.3,293.8,526.6c-6.5,137.1-17.4,171.9-78.3,258.9c-37,54.4-69.6,104.4-69.6,113.1c0,6.5,202.4,367.7,452.6,802.9l450.4,792h957.4h959.6l28.3-78.3c15.2-43.5,69.6-121.8,121.9-171.9c272-274.2,742-180.6,892.1,178.4c50,119.7,41.4,324.2-19.6,454.8c-91.4,198-319.8,326.4-548.3,309l-100.1-6.5l-424.3,739.8c-232.8,406.9-446.1,779-474.3,829l-52.2,89.2l476.5,833.4l476.5,833.4l139.2-4.3c171.9-6.5,261.1,28.3,393.9,150.1c128.4,119.7,171.9,235,161,430.8c-10.9,191.5-89.2,332.9-243.7,426.5c-134.9,82.7-352.5,104.4-502.6,47.9c-106.6-41.3-254.6-189.3-302.5-304.6L8202,2442l-953.1,4.4l-950.9,6.5l-454.8,794.2c-406.9,713.7-450.4,798.6-426.5,837.7c128.4,198,161,367.7,102.2,557C5442.9,4898.6,5112.2,5070.5,4848.9,4990z"/></g></g>
</svg>