<?xml version="1.0" encoding="utf-8"?>
<!-- Generator: Adobe Illustrator 25.0.0, SVG Export Plug-In . SVG Version: 6.00 Build 0)  -->
<svg version="1.1" id="Layer_1" xmlns="http://www.w3.org/2000/svg" xmlns:xlink="http://www.w3.org/1999/xlink" x="0px" y="0px"
	 viewBox="0 0 1000 1000" style="enable-background:new 0 0 1000 1000;" xml:space="preserve">
<style type="text/css">
	.st0{fill:black;}
</style>
<path class="st0" d="M862.7,759c-1.1-11.7-1.7-23.4-2.4-35c-1-15.7-1.9-31.5-2.9-47.2c-1.3-21.4-2.7-42.7-4.1-64.1
	c-0.8-11.7-11-164.3-12.1-180.5c-1.8-28-3.6-56-5.3-84c-0.2-2.9-1.1-5-3.7-6.3c-1.7-0.9-3.1-2-3.2-4.2c-13.8-67.5-27.5-89-28-90.3
	c-13.4-32.9-32.5-62.1-57.5-87.2C678.7,95.1,599,64.7,508.3,60.9c-2-0.1-3.9-0.1-5.9-0.2v-0.1c-0.8,0-1.6,0-2.4,0
	c-0.8,0-1.6,0-2.4,0v0.1c-2,0-3.9,0.1-5.9,0.2c-90.7,3.8-170.4,34.2-235.2,99.3c-25,25.1-44.1,54.3-57.5,87.2
	c-0.5,1.3-14.2,22.8-28,90.3c-0.2,2.2-1.5,3.4-3.2,4.2c-2.6,1.4-3.5,3.5-3.7,6.3c-1.7,28-3.5,56-5.3,84
	c-1.1,16.2-11.3,168.8-12.1,180.5c-1.4,21.4-2.8,42.7-4.1,64.1c-1,15.7-1.9,31.5-2.9,47.2c-0.7,11.7-1.3,23.4-2.4,35
	c-0.5,5,0.8,8.2,5.1,11.2c78.7,55.1,157.3,110.4,236,165.7c1.7,1.2,3.2,2.4,4.9,3.6c38.1,0,76.2,0,114.4,0c1.6,0,3.2,0,4.8,0
	c38.1,0,76.2,0,114.4,0c1.6-1.2,3.2-2.5,4.9-3.6c78.6-55.3,157.2-110.5,236-165.7C861.9,767.1,863.2,764,862.7,759z M823.3,755.8
	c-3.4,2.6-4.3,2.3-4.6-1.9c-1.3-15.8-2.4-31.7-3.6-47.6c-1.3-16.6-2.4-33.2-3.8-49.7c-1.6-20.2-3.3-40.3-4.9-60.5
	c-1.3-16.7-2.4-33.4-3.7-50.2c-1.9-24.8-4-49.6-5.8-74.4c-0.3-3.8-1.7-5.3-5.4-4.8c-6,0.9-12.1,0.6-18.2,1.4
	c-21,2.6-40.7,8.6-58.9,19.5c-27.4,16.4-46.7,40.2-61.6,68c-16.6,31.2-26.6,64.7-33.8,99.1c-8.6,40.7-13.1,81.9-15.8,123.3
	c-1.9,28.7-3.2,57.5-3.4,86.3c-0.1,11.4-0.5,22.9-0.5,34.3c0,3.8-1.5,5.1-5.2,5c-6.9-0.2-13.9,0-20.8,0c-6.6,0-6.7,0-6.7-6.8
	c0-139.6,0-279.2-0.1-418.7c0-4.7,1.3-6.9,6-8.2c49.9-13.9,99.9-27.1,150.7-37.2c21-4.2,42-8,63.5-9c3.4-0.2,4.1-1.9,4-4.8
	c-0.4-13.7-0.6-27.5-0.9-41.2c-0.1-6.7-0.2-6.7-6.9-6.7c-94.3,0-188.6,0-283,0c-94.3,0-188.6,0-283,0c-6.7,0-6.8,0.1-6.9,6.7
	c-0.3,13.7-0.6,27.5-0.9,41.2c-0.1,2.9,0.6,4.6,4,4.8c21.4,1,42.5,4.8,63.5,9c50.8,10.1,100.8,23.3,150.7,37.2c4.6,1.3,6,3.4,6,8.2
	c-0.1,139.6-0.1,279.2-0.1,418.7c0,6.8,0,6.8-6.7,6.8c-6.9,0-13.9-0.1-20.8,0c-3.7,0.1-5.2-1.3-5.2-5c0-11.4-0.4-22.9-0.5-34.3
	c-0.3-28.8-1.6-57.5-3.4-86.3c-2.7-41.5-7.2-82.6-15.8-123.3c-7.2-34.4-17.2-67.9-33.8-99.1c-14.8-27.8-34.1-51.6-61.6-68
	c-18.2-10.8-37.9-16.9-58.9-19.5c-6-0.7-12.1-0.4-18.2-1.4c-3.7-0.6-5.1,1-5.4,4.8c-1.8,24.8-3.9,49.6-5.8,74.4
	c-1.3,16.7-2.4,33.4-3.7,50.2c-1.6,20.2-3.3,40.3-4.9,60.5c-1.3,16.6-2.5,33.2-3.8,49.7c-1.2,15.9-2.3,31.7-3.6,47.6
	c-0.3,4.2-1.2,4.5-4.6,1.9c-10.7-8.1-10.5-8-9.3-22.6c1.6-19.4,2.9-38.9,4.3-58.4c1.6-21.6,3.4-43.2,4.9-64.9
	c1.3-18,2.4-36.1,3.7-54.1c1.3-17.7,2.7-35.5,4-53.2c1-13.4,1.9-26.8,2.9-40.2c1.3-18.5,2.7-36.9,4.1-55.4c1-13.8,1.9-27.7,2.9-41.5
	c0.3-4.5,0.6-8.9,0.9-13.4c0.1-2.1,1.2-3.1,3.3-3.2c1.6,0,3.2,0,4.8,0c98.9,0,197.9,0,296.8,0s197.9,0,296.8,0c1.6,0,3.2,0,4.8,0
	c2.1,0,3.2,1,3.3,3.2c0.3,4.5,0.6,8.9,0.9,13.4c1,13.8,1.9,27.7,2.9,41.5c1.3,18.5,2.7,36.9,4.1,55.4c1,13.4,1.9,26.8,2.9,40.2
	c1.3,17.7,2.8,35.5,4,53.2c1.3,18,2.4,36.1,3.7,54.1c1.6,21.6,3.3,43.2,4.9,64.9c1.5,19.5,2.7,38.9,4.3,58.4
	C833.8,747.7,834,747.7,823.3,755.8z"/>
</svg>
