<?xml version="1.0" encoding="iso-8859-1"?>
<!-- Generator: Adobe Illustrator 18.0.0, SVG Export Plug-In . SVG Version: 6.00 Build 0)  -->
<!DOCTYPE svg PUBLIC "-//W3C//DTD SVG 1.1//EN" "http://www.w3.org/Graphics/SVG/1.1/DTD/svg11.dtd">
<svg version="1.1" id="Capa_1" xmlns="http://www.w3.org/2000/svg" xmlns:xlink="http://www.w3.org/1999/xlink" x="0px" y="0px"
	 viewBox="0 0 304.102 304.102" style="enable-background:new 0 0 304.102 304.102;" xml:space="preserve">
<g>
	<path d="M274.19,71.492c1.875-1.876,2.929-4.419,2.929-7.071c0-2.652-1.054-5.195-2.929-7.071
		C217.042,0.201,144.223-16.863,109.245,18.112C91.735,35.623,86.685,62.92,95.025,94.976c7.153,27.492,23.548,55.897,46.534,80.862
		L30.365,287.031c-3.905,3.905-3.905,10.237,0,14.143c1.953,1.952,4.512,2.929,7.071,2.929c2.559,0,5.118-0.977,7.071-2.929
		C52.183,293.497,270.824,74.857,274.19,71.492z M112.581,52.571c3.512,7.629,8.214,15.421,12.857,22.462L113.67,86.959
		C110.672,74.051,110.324,62.4,112.581,52.571z M119.517,36.835c1.174-1.628,2.455-3.165,3.871-4.581
		c0.739-0.739,1.521-1.435,2.323-2.109c6.797,1.358,17.067,6.226,29.797,14.412L133.985,66.37
		C128.843,58.392,121.597,46.109,119.517,36.835z M165.527,51.335c7.375,5.221,15.36,11.348,23.823,18.381l-30.308,30.308
		c-6.758-8.128-12.892-16.056-18.253-23.616L165.527,51.335z M198.429,77.457c6.967,6.081,14.195,12.722,21.608,19.901l-33.36,33.36
		c-7-7.23-13.66-14.471-19.896-21.614L198.429,77.457z M228.448,88.95c-6.995-6.765-14.264-13.468-21.612-19.898l22.816-22.816
		c7.93,5.406,15.712,11.55,23.163,18.348L228.448,88.95z M197.771,61.295c-8.007-6.697-16.01-12.972-23.761-18.558l16.426-16.647
		c9.542,3.304,19.291,7.888,28.938,13.601L197.771,61.295z M177.418,22.351l-13.34,13.52c-8.598-5.672-16.715-10.277-23.975-13.414
		C151.97,18.789,165.35,19.635,177.418,22.351z M132.309,85.001c5.427,7.547,11.571,15.422,18.289,23.467l-19.805,19.805
		c-5.533-9.345-10.019-18.828-13.314-28.241L132.309,85.001z M158.351,117.535c6.257,7.147,12.932,14.38,19.917,21.592
		l-22.558,22.558c-6.816-7.452-12.955-15.214-18.37-23.139L158.351,117.535z"/>
	<path d="M291.41,175.958c-5.413-6.532-15.096-7.441-21.629-2.029l-18.225,15.1l-18.225-15.1c-5.572-4.623-13.821-4.787-19.601,0
		c-6.532,5.413-7.441,15.097-2.028,21.629l13.989,20.984c-6.182,6.182-6.182,16.205,0,22.387c3.091,3.092,7.142,4.638,11.193,4.638
		c4.052,0,8.104-1.546,11.194-4.638l3.477-3.477l3.476,3.477c6.183,6.182,16.206,6.183,22.388,0.001
		c6.183-6.182,6.183-16.206,0.001-22.388l13.989-20.984C296.033,189.986,296.198,181.738,291.41,175.958z"/>
	<path d="M29.908,191.383c0,8.743,7.088,15.832,15.83,15.832c8.742,0,15.831-7.088,15.831-15.83l24.729-4.946
		c7.209-0.672,13.158-6.388,13.859-13.859c0.791-8.446-5.412-15.937-13.859-16.729l-23.563-2.21l-2.21-23.564
		c-0.671-7.21-6.388-13.158-13.859-13.86c-8.447-0.791-15.937,5.413-16.729,13.86l-4.946,24.73c-8.742,0-15.829,7.088-15.829,15.83
		c-0.001,4.372,1.769,8.329,4.635,11.194c2.865,2.865,6.823,4.637,11.195,4.636h4.917L29.908,191.383z"/>
</g>
<g>
</g>
<g>
</g>
<g>
</g>
<g>
</g>
<g>
</g>
<g>
</g>
<g>
</g>
<g>
</g>
<g>
</g>
<g>
</g>
<g>
</g>
<g>
</g>
<g>
</g>
<g>
</g>
<g>
</g>
</svg>
